<?xml version="1.0" encoding="UTF-8" standalone="no"?>
<!-- Created with Inkscape (http://www.inkscape.org/) -->

<svg
   xmlns:dc="http://purl.org/dc/elements/1.1/"
   xmlns:cc="http://creativecommons.org/ns#"
   xmlns:rdf="http://www.w3.org/1999/02/22-rdf-syntax-ns#"
   xmlns:svg="http://www.w3.org/2000/svg"
   xmlns="http://www.w3.org/2000/svg"
   xmlns:xlink="http://www.w3.org/1999/xlink"
   xmlns:sodipodi="http://sodipodi.sourceforge.net/DTD/sodipodi-0.dtd"
   xmlns:inkscape="http://www.inkscape.org/namespaces/inkscape"
   width="210mm"
   height="297mm"
   id="svg3004"
   version="1.1"
   inkscape:version="0.48.2 r9819"
   sodipodi:docname="wynn.svg">
  <defs
     id="defs3">
    <linearGradient
       id="linearGradient4701">
      <stop
         style="stop-color:#fed661;stop-opacity:1;"
         offset="0"
         id="stop4703" />
      <stop
         style="stop-color:#fed12f;stop-opacity:1"
         offset="1"
         id="stop4705" />
    </linearGradient>
    <linearGradient
       inkscape:collect="always"
       xlink:href="#linearGradient4701"
       id="linearGradient4730"
       gradientUnits="userSpaceOnUse"
       gradientTransform="translate(-62.625,-311.90625)"
       x1="233.34077"
       y1="311.92517"
       x2="234.35094"
       y2="395.0625" />
    <linearGradient
       id="linearGradient3025">
      <stop
         style="stop-color:#fed661;stop-opacity:1;"
         offset="0"
         id="stop3027" />
      <stop
         style="stop-color:#fed12f;stop-opacity:1"
         offset="1"
         id="stop3029" />
    </linearGradient>
    <linearGradient
       inkscape:collect="always"
       xlink:href="#linearGradient4701"
       id="linearGradient3851"
       gradientUnits="userSpaceOnUse"
       gradientTransform="matrix(0.98726307,-0.03201771,0.03201617,0.98721559,6.0719553,-150.40593)"
       x1="269.70627"
       y1="308.89471"
       x2="269.70627"
       y2="770.53442" />
    <linearGradient
       inkscape:collect="always"
       xlink:href="#linearGradient4701"
       id="linearGradient3855"
       gradientUnits="userSpaceOnUse"
       gradientTransform="matrix(0.98778211,0,0,0.98773461,74.287401,-161.81523)"
       x1="269.70627"
       y1="308.89471"
       x2="269.70627"
       y2="770.53442" />
    <clipPath
       clipPathUnits="userSpaceOnUse"
       id="clipPath5486">
      <path
         inkscape:connector-curvature="0"
         id="path5488"
         d="m 243.30659,53.818259 c -1.71466,-0.21945 -3.43656,-0.190446 -5.125,0.09375 -6.75375,1.136784 -12.89774,5.244932 -18.90625,9.53125 L 118.93159,132.31826 c -0.0423,0.0303 -0.084,0.0616 -0.125,0.0937 -9.20923,6.89536 -13.81909,11.00125 -16.6875,15.84375 -2.868411,4.8425 -3.575411,9.62621 -5.750002,17.5625 -0.05862,0.19396 -0.100443,0.39261 -0.125,0.59375 -0.642007,7.18768 0.488581,12.13365 3.375,15.59375 2.886422,3.4601 6.592882,5.02568 10.625002,7.4375 0.1598,0.0964 0.32699,0.18001 0.5,0.25 8.85806,3.55374 15.05971,4.86007 21.375,3.125 6.31529,-1.73507 12.04444,-5.91983 21.75,-12.3125 0.0209,-0.0102 0.0418,-0.0206 0.0625,-0.0312 l 95.96875,-65.4375 c 1.61371,-1.09594 2.03344,-3.29254 0.9375,-4.90625 -1.09594,-1.61371 -3.29254,-2.03344 -4.90625,-0.9375 l -96,65.46875 c -9.76816,6.4339 -15.25113,10.12489 -19.6875,11.34375 -4.36787,1.20004 -8.39469,0.51747 -16.53125,-2.71875 -4.26294,-2.54254 -7.24021,-4.0463 -8.6875,-5.78125 -1.44499,-1.73218 -2.25911,-4.15248 -1.75,-10.21875 2.1454,-7.88252 2.92574,-12.04122 4.9375,-15.4375 2.0514,-3.46322 5.82225,-7.02645 14.84375,-13.78125 L 223.33784,69.255759 c 0.0211,-0.02057 0.0419,-0.04141 0.0625,-0.0625 5.82415,-4.154805 11.43493,-7.549372 15.96875,-8.3125 4.53382,-0.763128 8.11102,0.20856 12.5625,6.5 0.0493,0.07487 0.10141,0.147843 0.15625,0.21875 l 16,19.375 0,0.03125 c 2.48869,3.810694 3.15434,6.635214 2.8125,9.250004 -0.34269,2.62126 -1.8222,5.371927 -4.71875,8.562497 -5.77327,6.35928 -16.8736,13.84602 -30.59375,24.0625 -0.0471,0.0351 -0.0778,0.0586 -0.125,0.0937 -42.03718,28.4117 -82.67664,57.09312 -126.28125,85 -0.0421,0.02 -0.0837,0.0408 -0.125,0.0625 -9.02182,6.2712 -14.809176,9.95792 -20.468752,11.28125 -5.659576,1.32333 -11.741266,0.56862 -22.15625,-2.875 -11.99086,-4.26352 -16.730682,-6.94997 -18.40625,-9.78125 -1.675568,-2.83128 -1.374051,-7.92608 -0.84375,-18.1875 0.0017,-0.0625 0.0017,-0.12501 0,-0.1875 -0.03835,-13.89771 8.732503,-22.98001 21.125,-31.53125 L 210.55659,64.818259 c 1.60508,-1.113199 2.00382,-3.316797 0.89063,-4.921875 -1.1132,-1.605078 -3.3168,-2.003824 -4.92188,-0.890625 L 64.306588,156.94326 c -13.039287,8.99754 -24.14916,20.3519 -24.1875,37.1875 -1.47e-4,0.0646 -1.79e-4,0.12277 0,0.1875 -0.524923,9.97242 -1.489822,16.30462 1.84375,21.9375 3.358283,5.67464 9.916391,8.52295 22.15625,12.875 0.0311,0.0108 0.06236,0.0213 0.09375,0.0312 10.925565,3.61244 18.637436,4.75278 26,3.03125 7.362564,-1.72153 13.776292,-6.0191 22.875002,-12.34375 43.82248,-28.04633 84.46371,-56.73754 126.46875,-85.125 0.0423,-0.0303 0.084,-0.0616 0.125,-0.0937 13.62045,-10.14772 24.84942,-17.46149 31.75,-25.0625 3.45029,-3.80051 5.90313,-7.84069 6.5,-12.406247 0.59687,-4.56556 -0.82091,-9.301709 -3.9375,-14.062504 -0.0672,-0.108031 -0.14026,-0.21235 -0.21875,-0.3125 l -16.09375,-19.46875 -0.15625,-0.21875 -0.0312,0.03125 c -4.09929,-5.683193 -9.11212,-8.662929 -14.1875,-9.3125 z"
         style="fill:#008000;fill-opacity:1;fill-rule:evenodd;stroke:none" />
    </clipPath>
    <clipPath
       clipPathUnits="userSpaceOnUse"
       id="clipPath5482">
      <path
         inkscape:connector-curvature="0"
         id="path5484"
         d="m 243.30659,53.818259 c -1.71466,-0.21945 -3.43656,-0.190446 -5.125,0.09375 -6.75375,1.136784 -12.89774,5.244932 -18.90625,9.53125 L 118.93159,132.31826 c -0.0423,0.0303 -0.084,0.0616 -0.125,0.0937 -9.20923,6.89536 -13.81909,11.00125 -16.6875,15.84375 -2.868411,4.8425 -3.575411,9.62621 -5.750002,17.5625 -0.05862,0.19396 -0.100443,0.39261 -0.125,0.59375 -0.642007,7.18768 0.488581,12.13365 3.375,15.59375 2.886422,3.4601 6.592882,5.02568 10.625002,7.4375 0.1598,0.0964 0.32699,0.18001 0.5,0.25 8.85806,3.55374 15.05971,4.86007 21.375,3.125 6.31529,-1.73507 12.04444,-5.91983 21.75,-12.3125 0.0209,-0.0102 0.0418,-0.0206 0.0625,-0.0312 l 95.96875,-65.4375 c 1.61371,-1.09594 2.03344,-3.29254 0.9375,-4.90625 -1.09594,-1.61371 -3.29254,-2.03344 -4.90625,-0.9375 l -96,65.46875 c -9.76816,6.4339 -15.25113,10.12489 -19.6875,11.34375 -4.36787,1.20004 -8.39469,0.51747 -16.53125,-2.71875 -4.26294,-2.54254 -7.24021,-4.0463 -8.6875,-5.78125 -1.44499,-1.73218 -2.25911,-4.15248 -1.75,-10.21875 2.1454,-7.88252 2.92574,-12.04122 4.9375,-15.4375 2.0514,-3.46322 5.82225,-7.02645 14.84375,-13.78125 L 223.33784,69.255759 c 0.0211,-0.02057 0.0419,-0.04141 0.0625,-0.0625 5.82415,-4.154805 11.43493,-7.549372 15.96875,-8.3125 4.53382,-0.763128 8.11102,0.20856 12.5625,6.5 0.0493,0.07487 0.10141,0.147843 0.15625,0.21875 l 16,19.375 0,0.03125 c 2.48869,3.810694 3.15434,6.635214 2.8125,9.250004 -0.34269,2.62126 -1.8222,5.371927 -4.71875,8.562497 -5.77327,6.35928 -16.8736,13.84602 -30.59375,24.0625 -0.0471,0.0351 -0.0778,0.0586 -0.125,0.0937 -42.03718,28.4117 -82.67664,57.09312 -126.28125,85 -0.0421,0.02 -0.0837,0.0408 -0.125,0.0625 -9.02182,6.2712 -14.809176,9.95792 -20.468752,11.28125 -5.659576,1.32333 -11.741266,0.56862 -22.15625,-2.875 -11.99086,-4.26352 -16.730682,-6.94997 -18.40625,-9.78125 -1.675568,-2.83128 -1.374051,-7.92608 -0.84375,-18.1875 0.0017,-0.0625 0.0017,-0.12501 0,-0.1875 -0.03835,-13.89771 8.732503,-22.98001 21.125,-31.53125 L 210.55659,64.818259 c 1.60508,-1.113199 2.00382,-3.316797 0.89063,-4.921875 -1.1132,-1.605078 -3.3168,-2.003824 -4.92188,-0.890625 L 64.306588,156.94326 c -13.039287,8.99754 -24.14916,20.3519 -24.1875,37.1875 -1.47e-4,0.0646 -1.79e-4,0.12277 0,0.1875 -0.524923,9.97242 -1.489822,16.30462 1.84375,21.9375 3.358283,5.67464 9.916391,8.52295 22.15625,12.875 0.0311,0.0108 0.06236,0.0213 0.09375,0.0312 10.925565,3.61244 18.637436,4.75278 26,3.03125 7.362564,-1.72153 13.776292,-6.0191 22.875002,-12.34375 43.82248,-28.04633 84.46371,-56.73754 126.46875,-85.125 0.0423,-0.0303 0.084,-0.0616 0.125,-0.0937 13.62045,-10.14772 24.84942,-17.46149 31.75,-25.0625 3.45029,-3.80051 5.90313,-7.84069 6.5,-12.406247 0.59687,-4.56556 -0.82091,-9.301709 -3.9375,-14.062504 -0.0672,-0.108031 -0.14026,-0.21235 -0.21875,-0.3125 l -16.09375,-19.46875 -0.15625,-0.21875 -0.0312,0.03125 c -4.09929,-5.683193 -9.11212,-8.662929 -14.1875,-9.3125 z"
         style="fill:#008000;fill-opacity:1;fill-rule:evenodd;stroke:none" />
    </clipPath>
    <filter
       color-interpolation-filters="sRGB"
       inkscape:collect="always"
       id="filter5468">
      <feGaussianBlur
         inkscape:collect="always"
         stdDeviation="0.94954182"
         id="feGaussianBlur5470" />
    </filter>
    <linearGradient
       inkscape:collect="always"
       xlink:href="#linearGradient4701"
       id="linearGradient3888"
       gradientUnits="userSpaceOnUse"
       gradientTransform="matrix(0.98742756,0.0264634,-0.02646213,0.98738008,126.57731,-154.05089)"
       x1="269.70627"
       y1="308.89471"
       x2="269.70627"
       y2="770.53442" />
    <filter
       inkscape:collect="always"
       id="filter3931"
       x="-0.14653368"
       width="1.2930674"
       y="-0.058363612"
       height="1.1167272">
      <feGaussianBlur
         inkscape:collect="always"
         stdDeviation="4.6336269"
         id="feGaussianBlur3933" />
    </filter>
    <filter
       inkscape:collect="always"
       id="filter4000">
      <feGaussianBlur
         inkscape:collect="always"
         stdDeviation="0.3738362"
         id="feGaussianBlur4002" />
    </filter>
    <linearGradient
       inkscape:collect="always"
       xlink:href="#linearGradient4701"
       id="linearGradient4142"
       gradientUnits="userSpaceOnUse"
       gradientTransform="matrix(0.98113309,-0.11441745,0.11441195,0.98108591,-77.43548,-112.85468)"
       x1="269.70627"
       y1="308.89471"
       x2="269.70627"
       y2="770.53442" />
    <linearGradient
       inkscape:collect="always"
       xlink:href="#linearGradient4701"
       id="linearGradient4232"
       gradientUnits="userSpaceOnUse"
       gradientTransform="matrix(0.98742756,0.0264634,-0.02646213,0.98738008,126.57731,-154.05089)"
       x1="269.70627"
       y1="308.89471"
       x2="269.70627"
       y2="770.53442" />
    <linearGradient
       inkscape:collect="always"
       xlink:href="#linearGradient4701"
       id="linearGradient4234"
       gradientUnits="userSpaceOnUse"
       gradientTransform="matrix(0.98778211,0,0,0.98773461,74.287401,-161.81523)"
       x1="269.70627"
       y1="308.89471"
       x2="269.70627"
       y2="770.53442" />
    <linearGradient
       inkscape:collect="always"
       xlink:href="#linearGradient4701"
       id="linearGradient4236"
       gradientUnits="userSpaceOnUse"
       gradientTransform="matrix(0.98726307,-0.03201771,0.03201617,0.98721559,6.0719553,-150.40593)"
       x1="269.70627"
       y1="308.89471"
       x2="269.70627"
       y2="770.53442" />
    <linearGradient
       inkscape:collect="always"
       xlink:href="#linearGradient4701"
       id="linearGradient4238"
       gradientUnits="userSpaceOnUse"
       gradientTransform="matrix(0.98113309,-0.11441745,0.11441195,0.98108591,-77.43548,-112.85468)"
       x1="269.70627"
       y1="308.89471"
       x2="269.70627"
       y2="770.53442" />
    <linearGradient
       inkscape:collect="always"
       xlink:href="#linearGradient4701"
       id="linearGradient4252"
       gradientUnits="userSpaceOnUse"
       gradientTransform="matrix(0.98113309,-0.11441745,0.11441195,0.98108591,-77.43548,-112.85468)"
       x1="269.70627"
       y1="308.89471"
       x2="269.70627"
       y2="770.53442" />
    <linearGradient
       inkscape:collect="always"
       xlink:href="#linearGradient4701"
       id="linearGradient4255"
       gradientUnits="userSpaceOnUse"
       gradientTransform="matrix(0.98726307,-0.03201771,0.03201617,0.98721559,6.0719553,-150.40593)"
       x1="269.70627"
       y1="308.89471"
       x2="269.70627"
       y2="770.53442" />
    <linearGradient
       inkscape:collect="always"
       xlink:href="#linearGradient4701"
       id="linearGradient4258"
       gradientUnits="userSpaceOnUse"
       gradientTransform="matrix(0.98778211,0,0,0.98773461,74.287401,-161.81523)"
       x1="269.70627"
       y1="308.89471"
       x2="269.70627"
       y2="770.53442" />
    <linearGradient
       inkscape:collect="always"
       xlink:href="#linearGradient4701"
       id="linearGradient4261"
       gradientUnits="userSpaceOnUse"
       gradientTransform="matrix(0.98742756,0.0264634,-0.02646213,0.98738008,126.57731,-154.05089)"
       x1="269.70627"
       y1="308.89471"
       x2="269.70627"
       y2="770.53442" />
    <filter
       inkscape:collect="always"
       id="filter4299">
      <feGaussianBlur
         inkscape:collect="always"
         stdDeviation="11.535402"
         id="feGaussianBlur4301" />
    </filter>
    <linearGradient
       inkscape:collect="always"
       xlink:href="#linearGradient4701"
       id="linearGradient4337"
       gradientUnits="userSpaceOnUse"
       gradientTransform="matrix(0.98742756,0.0264634,-0.02646213,0.98738008,126.57731,-154.05089)"
       x1="269.70627"
       y1="308.89471"
       x2="269.70627"
       y2="770.53442" />
    <linearGradient
       inkscape:collect="always"
       xlink:href="#linearGradient4701"
       id="linearGradient4339"
       gradientUnits="userSpaceOnUse"
       gradientTransform="matrix(0.98778211,0,0,0.98773461,74.287401,-161.81523)"
       x1="269.70627"
       y1="308.89471"
       x2="269.70627"
       y2="770.53442" />
    <linearGradient
       inkscape:collect="always"
       xlink:href="#linearGradient4701"
       id="linearGradient4341"
       gradientUnits="userSpaceOnUse"
       gradientTransform="matrix(0.98726307,-0.03201771,0.03201617,0.98721559,6.0719553,-150.40593)"
       x1="269.70627"
       y1="308.89471"
       x2="269.70627"
       y2="770.53442" />
    <linearGradient
       inkscape:collect="always"
       xlink:href="#linearGradient4701"
       id="linearGradient4343"
       gradientUnits="userSpaceOnUse"
       gradientTransform="matrix(0.98113309,-0.11441745,0.11441195,0.98108591,-77.43548,-112.85468)"
       x1="269.70627"
       y1="308.89471"
       x2="269.70627"
       y2="770.53442" />
    <linearGradient
       inkscape:collect="always"
       xlink:href="#linearGradient4701"
       id="linearGradient4357"
       gradientUnits="userSpaceOnUse"
       gradientTransform="matrix(0.98113309,-0.11441745,0.11441195,0.98108591,-77.43548,-112.85468)"
       x1="269.70627"
       y1="308.89471"
       x2="269.70627"
       y2="770.53442" />
    <linearGradient
       inkscape:collect="always"
       xlink:href="#linearGradient4701"
       id="linearGradient4360"
       gradientUnits="userSpaceOnUse"
       gradientTransform="matrix(0.98726307,-0.03201771,0.03201617,0.98721559,6.0719553,-150.40593)"
       x1="269.70627"
       y1="308.89471"
       x2="269.70627"
       y2="770.53442" />
    <linearGradient
       inkscape:collect="always"
       xlink:href="#linearGradient3025"
       id="linearGradient4363"
       gradientUnits="userSpaceOnUse"
       gradientTransform="matrix(0.98778211,0,0,0.98773461,74.287401,-161.81523)"
       x1="269.70627"
       y1="308.89471"
       x2="269.70627"
       y2="770.53442" />
    <linearGradient
       inkscape:collect="always"
       xlink:href="#linearGradient4701"
       id="linearGradient4366"
       gradientUnits="userSpaceOnUse"
       gradientTransform="matrix(0.98742756,0.0264634,-0.02646213,0.98738008,126.57731,-154.05089)"
       x1="269.70627"
       y1="308.89471"
       x2="269.70627"
       y2="770.53442" />
  </defs>
  <sodipodi:namedview
     inkscape:document-units="mm"
     id="base"
     pagecolor="#ffffff"
     bordercolor="#666666"
     borderopacity="1.0"
     inkscape:pageopacity="0.0"
     inkscape:pageshadow="2"
     inkscape:zoom="0.64"
     inkscape:cx="175.37321"
     inkscape:cy="597.51646"
     inkscape:current-layer="layer1"
     showgrid="false"
     inkscape:window-width="1280"
     inkscape:window-height="1002"
     inkscape:window-x="-8"
     inkscape:window-y="-8"
     inkscape:window-maximized="1" />
  <metadata
     id="metadata4">
    <rdf:RDF>
      <cc:Work
         rdf:about="">
        <dc:format>image/svg+xml</dc:format>
        <dc:type
           rdf:resource="http://purl.org/dc/dcmitype/StillImage" />
        <dc:title></dc:title>
      </cc:Work>
    </rdf:RDF>
  </metadata>
  <g
     inkscape:label="Layer 1"
     inkscape:groupmode="layer"
     id="layer1">
    <path
       style="opacity:0.37610623;fill:#000000;fill-opacity:1;stroke:none;filter:url(#filter4299)"
       d="m 158.44719,238.99104 441.43268,-39.42455 39.53708,442.4026 c 0,0 -162.1262,13.88416 -167.08167,14.46205 -4.95547,0.5779 -35.67939,4.16085 -35.67939,4.16085 0,0 -69.72331,5.11739 -74.79435,4.70425 -5.07105,-0.41315 -43.37699,7.06757 -47.45694,6.53884 -4.07995,-0.52873 -116.18918,11.54066 -116.18918,11.54066 l -39.76823,-444.3847 z"
       id="path4263"
       inkscape:connector-curvature="0"
       transform="matrix(0.98875236,0.14956191,-0.14956191,0.98875236,68.951807,-85.949536)" />
    <path
       style="fill:url(#linearGradient4366);fill-opacity:1;stroke:#000000;stroke-opacity:1"
       d="m 169.26897,152.30882 442.54814,23.83789 -23.86463,443.5242 c 0,0 -162.4511,-9.34434 -167.43836,-9.478 -4.98726,-0.13366 -35.90829,-0.96236 -35.90829,-0.96236 0,0 -69.74149,-4.86346 -74.70201,-5.99452 -4.96054,-1.13106 -43.94137,0.8186 -47.90445,-0.28574 -3.96308,-1.10433 -116.64849,-5.12245 -116.64849,-5.12245 l 23.91809,-445.51902 z"
       id="path3886"
       inkscape:connector-curvature="0" />
    <path
       inkscape:connector-curvature="0"
       id="path3853"
       d="m 125.17134,143.29077 443.02792,11.97315 -11.97373,444.00436 c 0,0 -162.64313,-4.98881 -167.63218,-4.98881 -4.98905,0 -35.92118,0 -35.92118,0 0,0 -69.84675,-2.99329 -74.8358,-3.99105 -4.98906,-0.99776 -43.90366,1.99553 -47.89491,0.99776 -3.99124,-0.99776 -116.74385,-1.99552 -116.74385,-1.99552 l 11.97373,-445.99989 z"
       style="fill:url(#linearGradient4363);fill-opacity:1.0;stroke:#000000;stroke-opacity:1" />
    <path
       style="fill:url(#linearGradient4360);fill-opacity:1;stroke:#000000;stroke-opacity:1"
       d="m 66.818784,152.89041 443.183216,-2.39333 2.42441,444.15916 c 0,0 -162.71938,0.28568 -167.70581,0.4474 -4.98642,0.16171 -35.9023,1.16434 -35.9023,1.16434 0,0 -69.90707,-0.72772 -74.92584,-1.56325 -5.01878,-0.83552 -43.81591,3.41757 -47.8374,2.54969 -4.02149,-0.86786 -116.747192,1.78964 -116.747192,1.78964 L 66.818784,152.89041 z"
       id="path3849"
       inkscape:connector-curvature="0" />
    <path
       inkscape:connector-curvature="0"
       id="path4720"
       d="m 8.44719,184.30354 441.43268,-39.42455 39.53708,442.4026 c 0,0 -162.1262,13.88416 -167.08167,14.46205 -4.95547,0.5779 -35.67939,4.16085 -35.67939,4.16085 0,0 -69.72331,5.11739 -74.79435,4.70425 -5.07105,-0.41315 -43.37699,7.06757 -47.45694,6.53884 -4.07995,-0.52873 -116.18918,11.54066 -116.18918,11.54066 L 8.44719,184.30354 z"
       style="fill:url(#linearGradient4357);fill-opacity:1;stroke:#000000;stroke-width:1;stroke-opacity:1" />
    <g
       id="g4084"
       transform="matrix(0.54546025,-0.11101703,0.11101703,0.54546025,190.76214,599.14335)">
      <path
         inkscape:connector-curvature="0"
         d="m -81.688636,-465.15507 c -0.868413,25.08633 4.308982,49.92218 9.408698,74.34804 5.077293,19.99567 9.326433,40.21354 15.50278,59.91118 0.553111,1.4848 2.042679,5.85845 3.086925,7.48831 0.313544,0.48939 1.02014,1.70588 1.278737,1.18536 0.50265,-1.01175 0.838354,-3.85968 -0.18639,-3.38407 -13.801794,6.40569 -26.016867,15.98437 -39.981512,22.02681 -2.120253,0.91743 2.158473,-4.08528 3.237709,-6.12792 1.036663,-3.02922 2.20372,-6.01691 3.109989,-9.08766 2.567653,-8.70009 4.001318,-15.87587 5.615411,-24.85245 2.76887,-15.39874 4.510797,-30.85306 6.121891,-46.40572 2.484805,-26.08866 3.155455,-52.31639 2.593096,-78.5065 -0.117296,-2.72169 -0.208738,-5.44463 -0.351887,-8.16508 -0.08371,-1.59092 -0.578853,-9.24826 -0.81334,-11.3433 -0.108787,-0.97197 -1.293656,-2.35694 -0.476981,-2.89508 44.369589,-29.23723 38.310366,-40.81651 45.358479,-18.64768 6.194303,27.81806 11.745021,55.77402 17.701188,83.64477 7.4297464,33.38263 15.4385903,66.63035 23.844033,99.77943 2.498198,9.51507 5.067583,19.01637 8.225475,28.3375 0.653093,1.92773 1.240334,3.88481 2.05678,5.74923 1.79416,4.09712 0.883449,3.735 3.663771,3.1523 -13.843378,6.91804 -27.30180702,14.66698 -41.530134,20.7541 -1.707238,0.73039 2.487265,-2.80078 3.37609,-4.43115 1.4689229,-2.69445 2.6015625,-5.56803 3.64791,-8.45297 5.5120564,-15.19763 8.4362945,-31.20053 11.6869558,-46.97556 8.9339702,-43.6038 14.3877472,-87.8309 19.2338372,-132.04679 1.863386,-16.99607 3.113866,-34.05412 3.181387,-51.15392 0,0 42.168164,-20.96003 42.168164,-20.96003 l 0,0 c -3.404779,18.30219 -6.889828,36.58949 -10.287332,54.89308 -3.890733,21.03592 -7.548255,42.09131 -10.576978,63.2726 -1.136245,7.94629 -2.105326,15.91562 -3.18852,23.86932 -4.536598,33.31139 -2.102648,12.79101 -5.568929,45.01011 -2.022562,17.6786 -3.767705,35.35347 -7.185531,52.82718 -0.357243,1.82642 0.48179,4.46925 -1.082715,5.47709 -14.490971,9.33494 -30.34497953,16.36154 -45.51747,24.54232 -0.669034,-0.94522 -1.54357,-1.77443 -2.007103,-2.83565 -1.062548,-2.4326 -1.959545,-8.75814 -2.337773,-10.93581 -1.746061,-10.05306 -3.212788,-20.14792 -5.082755,-30.1802 -5.97167,-33.96525 -12.813159,-67.778 -20.741375,-101.34332 -2.896092,-11.01372 -6.364504,-24.61312 -9.656534,-35.59527 -1.491697,-4.97627 -3.141153,-9.9042 -4.776408,-14.83516 -2.024044,-6.10332 -5.105059,-15.25256 -7.796235,-21.37189 -0.995233,-2.26301 -2.235695,-4.41004 -3.353543,-6.61506 -12.965796,-12.62124 -3.864549,-2.89058 40.187794,-26.92067 0.992693,-0.5415 -0.598091,2.1875 -0.754096,3.30747 -0.568311,4.07993 -0.70121,8.20892 -1.005185,12.31701 -0.214094,2.8934 -0.404181,5.78853 -0.606271,8.68279 -1.670563,26.82305 -3.124305,53.66535 -5.673632,80.42556 -2.529974,26.30617 -4.656865,52.68255 -9.082834,78.75889 -0.39617,2.06708 0.480749,4.91931 -1.188509,6.20125 -6.328609,4.86016 -35.370861,39.15762 -46.879687,25.92331 -1.877515,-2.15901 -2.169398,-8.8927 -2.839168,-11.41255 -3.128627,-20.93384 -6.530687,-41.81623 -10.796837,-62.55488 -2.90839,-14.71908 -5.81284,-29.44241 -9.19781,-44.06165 -1.49897,-6.47383 -3.54324,-14.9264 -5.59833,-21.4419 -0.57021,-1.80779 -1.31467,-3.55592 -1.972,-5.33389 0,0 43.806704,-23.01123 43.806704,-23.01123 z"
         id="path4076"
         style="opacity:0.8;fill:#000000;fill-opacity:1;stroke:none" />
      <path
         inkscape:connector-curvature="0"
         d="m 94.103218,-410.76807 c -1.096288,15.43993 -0.7405,30.95859 -0.368231,46.42181 0.312615,19.08042 1.456141,38.21038 5.406925,56.91177 0.591548,2.25539 2.893108,13.08573 6.813388,12.851 0.65193,-0.039 1.21519,-0.47903 1.82279,-0.71855 0.94906,-0.47643 1.9171,-0.9168 2.84719,-1.42929 1.50606,-0.82988 5.95326,-3.4451 4.45793,-2.59601 -10.98882,6.23976 -21.800627,12.79884 -32.93867,18.76817 -3.173372,1.70074 6.061506,-3.89021 9.016401,-5.94725 9.971309,-6.94148 11.520899,-8.50731 21.327819,-16.44189 21.52411,-19.05354 39.58773,-41.7367 53.74536,-66.73739 2.16092,-3.81593 4.05854,-7.77508 6.0878,-11.66262 1.14155,-2.76642 2.37817,-5.49549 3.42464,-8.29926 7.33553,-19.65374 -13.22431,-9.61041 43.29976,-30.32078 3.16799,-1.16075 1.56764,6.72723 1.07327,10.06475 -0.64076,4.32585 -2.92368,8.24295 -4.39509,12.36102 -2.36014,6.60544 -4.73303,13.20632 -7.09955,19.80947 -20.49528,58.75712 -39.7661,117.93281 -59.21221,177.04304 -15.03612,44.16898 -30.80187,88.08672 -45.56648,132.348042 -4.437396,13.418469 -8.945225,26.806186 -13.172582,40.292239 0,0 -38.830649,18.1350235 -38.830649,18.1350235 l 0,0 C 57.394362,-23.826602 62.623841,-37.857243 68.228986,-51.74819 c 17.989433,-44.884237 35.689964,-89.88189 52.160044,-135.35139 5.24041,-14.45013 16.22842,-44.5364 21.06819,-58.7715 12.84382,-37.77724 24.31607,-76.07425 32.27967,-115.20411 0.91958,-5.86044 2.00856,-11.6968 2.75875,-17.58132 0.43182,-3.3872 -0.29977,-6.97593 0.78472,-10.21375 0.26989,-0.80578 1.79282,0.74401 2.52919,0.31988 13.71923,-7.90191 26.39083,-17.59057 40.36767,-25.02733 5.21127,-2.77279 -20.65374,22.06676 -9.37428,15.02445 -6.47322,10.98487 -8.91218,15.43926 -16.17019,26.35711 -12.69588,19.09777 -26.81175,37.30377 -43.12002,53.47077 -9.96956,8.78233 -9.03637,8.27278 -19.01199,15.94294 -2.52045,1.93795 -4.93933,4.03757 -7.65802,5.68592 -15.36612,9.31654 -30.918534,18.32686 -46.55437,27.18328 -1.936766,1.09702 -3.992346,2.02417 -6.126611,2.65618 -1.423595,0.42155 -2.952846,0.3131 -4.429269,0.46965 -1.146793,-0.40755 -2.383762,-0.61866 -3.440377,-1.22265 -5.419861,-3.09809 -5.641895,-12.40355 -6.448466,-17.63984 -1.557307,-19.50055 -1.835734,-39.06434 -3.120132,-58.58245 -1.053037,-14.50401 -1.839546,-29.15458 -4.931328,-43.39896 0,0 44.311051,-23.13676 44.311051,-23.13676 z"
         id="path4078"
         style="opacity:0.8;fill:#000000;fill-opacity:1;stroke:none" />
      <path
         inkscape:connector-curvature="0"
         d="m 266.59253,-405.62748 c -3.92052,17.71393 -9.39919,35.04552 -14.39798,52.47541 -8.34089,28.0955 -18.22518,55.76146 -25.3807,84.19724 -0.18847,1.99806 -0.7188,3.99313 -0.5654,5.99419 0.41873,5.4621 2.6494,-1.13118 2.23932,-0.93605 -12.7766,6.07973 -24.69344,13.84983 -37.38698,20.10112 -2.67267,1.31623 4.89768,-3.40038 7.23259,-5.25074 2.9207,-2.3146 5.68201,-4.8235 8.52301,-7.23525 22.88221,-20.65869 44.51355,-42.66524 66.12465,-64.63754 7.54152,-7.11229 14.12936,-15.17521 21.65918,-22.29709 1.22282,-1.15657 2.35906,-2.47957 3.84085,-3.27784 14.84831,-7.99914 29.27865,-17.05149 45.03977,-23.05532 1.7849,-0.67991 2.2833,3.06256 3.42496,4.59383 0.42062,2.31788 1.06032,4.60654 1.26186,6.95364 0.34705,4.04183 -0.0388,16.20682 -0.20911,19.74692 -0.65151,13.53981 -1.85836,27.06428 -2.99896,40.56861 -1.78512,19.12926 -4.27465,38.17937 -5.91544,57.32211 0,0 -40.70754,20.02233 -40.70754,20.02233 l 0,0 c 3.79313,-19.40653 7.32851,-38.88673 9.15884,-58.59497 0.78186,-13.04543 1.53445,-26.05141 1.01518,-39.12737 -0.20319,-5.11682 -0.71657,-12.35286 -1.84635,-17.54437 -0.32678,-1.50164 -0.97073,-2.91625 -1.45609,-4.37437 -12.34373,-10.48484 -1.34917,-0.58471 37.13683,-23.78122 1.87947,-1.13281 -3.91342,2.02561 -5.68284,3.32363 -2.48597,1.82367 -4.75228,3.93269 -7.03454,6.00564 -1.36492,1.23974 -18.05986,17.27693 -18.50091,17.70009 -3.00628,2.95559 -19.8694,19.52223 -22.59055,22.24816 -13.70397,13.72809 -27.00383,27.85549 -40.79049,41.50206 -2.3702,2.28071 -4.75086,4.5506 -7.11059,6.84213 -1.79691,1.74498 -3.20726,3.9854 -5.35917,5.26724 -15.27034,9.09617 -30.46959,18.49108 -46.69769,25.74179 -1.57244,0.70256 -3.36378,-1.49612 -4.20892,-2.99675 -1.53056,-2.71764 1.84016,-10.56755 2.27375,-11.92248 10.71918,-27.86865 21.26203,-55.91323 27.85188,-85.1044 3.33347,-14.29844 3.07123,-12.0022 5.2869,-25.72423 1.16364,-7.20658 2.38302,-14.57186 1.93124,-21.89931 0,0 44.83944,-22.84684 44.83944,-22.84684 z"
         id="path4080"
         style="opacity:0.8;fill:#000000;fill-opacity:1;stroke:none" />
      <path
         inkscape:connector-curvature="0"
         d="m 408.97059,-367.4583 c -1.58978,12.5373 -2.94588,25.10858 -5.36107,37.52899 -0.81831,4.20829 -1.79364,8.38451 -2.69047,12.57676 -5.04873,22.61319 -12.00478,44.73877 -18.5395,66.95222 -0.0682,0.24191 -2.61692,9.06429 -2.82768,10.45053 -0.0587,0.38587 0.60327,0.98109 0.24869,1.14419 -14.83155,6.82215 -29.7362,13.5278 -44.96032,19.42207 -1.48758,0.57595 2.33386,-2.17856 3.42591,-3.34133 1.79202,-1.90809 3.48081,-3.91056 5.22121,-5.86584 9.06854,-10.5101 19.52206,-19.60887 30.08253,-28.56176 4.63313,-3.92784 9.2612,-7.864 13.99728,-11.66707 11.65544,-9.35932 17.53296,-13.46221 29.52023,-22.24016 11.31962,-7.63719 22.15499,-16.13554 34.09382,-22.83341 15.19001,-8.52184 30.15568,-17.49128 45.78159,-25.18472 1.90373,-0.9373 4.29608,-1.02314 6.34767,-0.48119 1.75124,0.4626 2.87877,2.1991 4.31815,3.29865 0.43189,2.26332 1.25284,4.48621 1.29567,6.78998 0.0898,4.8289 -2.1775,12.14869 -3.61508,16.45578 -3.61827,10.84052 -8.45723,21.29911 -12.93102,31.79941 -7.59416,17.29653 -15.59895,34.40805 -23.31301,51.65147 -0.55208,1.27731 -1.10416,2.55462 -1.65625,3.83193 0,0 -43.72218,19.73882 -43.72218,19.73882 l 0,0 c 0.82137,-1.41506 1.64273,-2.83012 2.46409,-4.24518 10.07653,-17.04822 19.2785,-34.60399 26.9755,-52.86916 2.69315,-6.80352 5.75048,-14.33382 8.2024,-21.2542 2.94661,-8.31662 5.89341,-16.94118 5.31595,-25.89778 -0.51973,-0.32806 -0.9472,-0.92747 -1.55919,-0.98419 -11.41785,-1.05835 -45.15666,27.89253 26.73843,-18.26787 3.51292,-2.25548 -7.37542,3.92138 -10.95449,6.07034 -8.36375,5.0218 -19.23371,12.52527 -27.19986,17.90008 -4.95766,3.56445 -9.97668,7.04505 -14.87297,10.69334 -11.19197,8.33929 -17.21879,13.2021 -27.59302,22.36549 -7.00202,6.18477 -13.09182,11.81551 -19.29583,18.70001 -2.0116,2.23224 -3.82262,4.63739 -5.73393,6.95608 -1.17728,1.68891 -2.44161,3.32037 -3.53186,5.06674 -0.59861,0.95885 -0.51205,2.52395 -1.52284,3.02995 -71.24498,35.66514 -51.28962,33.41154 -42.61755,14.31406 1.00257,-2.20784 1.83952,-4.48719 2.75927,-6.73078 8.65375,-21.89645 16.67602,-44.18724 21.01387,-67.39567 2.33106,-15.20913 5.11467,-30.89641 2.15272,-46.22072 0,0 44.54314,-22.69586 44.54314,-22.69586 z"
         id="path4082"
         style="opacity:0.8;fill:#000000;fill-opacity:1;stroke:none" />
    </g>
    <g
       id="g4188"
       transform="matrix(0.34748416,0,0,0.34748416,104.2983,99.385131)">
      <path
         inkscape:connector-curvature="0"
         d="m 660.61054,257.08077 c 0.46013,0.0121 0.92131,0.0695 1.38041,0.0362 2.05768,-0.149 1.98777,-0.37781 4.1056,-0.96365 4.20608,-1.16349 8.33808,-2.40133 12.49362,-3.75191 13.95784,-4.7032 28.0365,-9.04404 42.1777,-13.16046 6.03776,-1.72843 11.9949,-3.71119 17.9777,-5.61213 1.19352,-0.37922 5.51329,-2.07206 7.1423,-1.09442 1.34804,0.80902 1.99383,2.43138 2.99074,3.64707 0.34892,2.35647 0.94848,4.68927 1.04675,7.0694 0.17142,4.15205 -1.00401,24.0258 -1.1505,26.20682 -1.67911,24.99854 -4.43313,49.85455 -7.25252,74.74475 -8.07478,63.66602 -18.28329,127.07972 -30.10375,190.15517 -5.73803,32.28478 -13.35929,64.16785 -20.87769,96.06776 -0.53145,2.11301 -1.0629,4.22602 -1.59435,6.33903 0,0 -42.0481,19.68257 -42.0481,19.68257 l 0,0 c 0.99769,-2.28828 1.99538,-4.57656 2.99306,-6.86484 12.97637,-32.83625 23.36496,-66.64718 31.90224,-100.89948 2.20729,-9.39346 4.53639,-18.75913 6.62187,-28.18039 11.77547,-53.19636 20.39011,-107.2098 23.76188,-161.62038 0.30847,-9.30089 0.78274,-18.59777 0.92541,-27.90269 0.24522,-15.99391 0.0327,-26.93216 -1.35524,-42.51803 -0.65045,-7.3041 -1.71831,-15.57217 -3.50004,-22.82759 -0.32416,-1.32004 -0.89932,-2.56544 -1.34898,-3.84817 -1.74839,-0.38834 -4.37028,0.61407 -5.93927,1.01744 -5.53493,1.42296 -11.05508,2.9087 -16.55223,4.47098 -14.49102,4.26254 -28.86501,8.92083 -43.06039,14.0884 -4.72915,1.65584 -9.48255,3.44806 -14.35324,4.66557 -2.44745,0.61177 -2.67501,0.43499 -4.99509,0.89602 -0.53983,0.10727 -1.06781,0.2674 -1.60172,0.40109 0,0 40.21383,-30.24416 40.21383,-30.24416 z"
         id="path4152"
         style="opacity:0.8;fill:#000000;fill-opacity:1;stroke:none" />
      <path
         inkscape:connector-curvature="0"
         d="m 702.70957,295.17474 c 8.92697,-6.53557 16.95002,-14.15449 25.05217,-21.65988 10.22504,-9.96066 20.74122,-19.64577 32.28442,-28.07947 2.42534,-1.772 4.94026,-3.41803 7.41039,-5.12704 20.30314,-12.01253 39.70129,-26.43382 62.18799,-33.94844 7.53353,-2.51756 15.20361,-3.80045 23.03664,-4.89783 8.58191,-0.25004 17.74121,0.32923 25.07926,5.34677 4.39621,3.00599 7.39808,6.69357 10.99974,10.56094 10.88075,13.89935 18.56188,29.80843 23.58486,46.69064 1.10016,3.69763 1.93057,7.47022 2.89585,11.20533 3.17381,17.60434 4.38753,35.67649 1.62629,53.43855 -1.97924,12.73173 -4.16231,18.36482 -7.90157,30.74078 -9.66033,26.185 -22.80231,51.04406 -38.91187,73.83632 -3.0899,4.37166 -6.39964,8.58372 -9.59946,12.87558 -15.32932,19.88955 -33.55197,37.29471 -53.15998,52.91561 -3.8774,3.08897 -7.88348,6.01288 -11.82522,9.01932 -17.70681,12.63756 -36.13313,24.21643 -54.23425,36.27226 -5.79845,3.86982 -3.07059,2.03895 -8.1867,5.48797 0,0 -44.58332,17.39324 -44.58332,17.39324 l 0,0 c 6.1205,-3.88273 2.86737,-1.8369 9.7656,-6.1276 19.68999,-12.37109 39.53394,-24.52049 58.70471,-37.6929 3.9747,-2.95469 8.0172,-5.82029 11.9241,-8.86407 19.8498,-15.46451 38.28352,-32.79195 54.19991,-52.31037 8.43689,-10.96019 11.5232,-14.54555 19.14354,-26.16038 12.15124,-18.52077 22.35911,-38.32843 29.87326,-59.1801 3.81072,-12.87169 5.36462,-16.33043 7.22729,-29.49796 2.42244,-17.12454 1.32676,-34.52676 -2.44498,-51.36166 -0.92043,-3.63063 -1.69144,-7.30245 -2.76127,-10.89189 -4.82591,-16.19165 -12.91977,-31.37206 -24.46062,-43.76475 -4.50624,-4.02444 -5.93435,-5.81945 -11.15138,-8.61359 -7.03691,-3.76883 -15.1227,-4.21168 -22.90522,-3.52971 -7.76298,1.18855 -14.32259,2.49208 -21.74003,5.288 -14.70714,5.54369 -27.00895,15.1201 23.46948,-15.13669 2.56955,-1.54019 -5.20703,2.96407 -7.81055,4.44611 -2.52557,1.6373 -5.1056,3.1935 -7.57671,4.9119 -11.34664,7.89038 -21.61498,17.25679 -31.2471,27.13169 -3.21911,3.08087 -6.46798,6.13072 -9.66964,9.22972 -3.94102,3.81466 -7.65408,7.91831 -12.03131,11.25012 0,0 -46.26432,18.80348 -46.26432,18.80348 z"
         id="path4186"
         style="opacity:0.8;fill:#000000;fill-opacity:1;stroke:none" />
    </g>
    <path
       sodipodi:nodetypes="ccccccccccc"
       inkscape:connector-curvature="0"
       id="path3905"
       d="m 434.38896,148.57498 c -10.52713,-29.18873 -48.0749,-25.59238 -50.95427,2.24961 l 29.57341,156.95476 c 4.89561,14.67767 42.30676,17.89513 46.31839,-10.4966 l -20.20628,-107.41658 -7.46491,2.41077 19.7869,102.94955 c 1.44994,12.94551 -22.18521,25.59026 -31.93921,6.44737 L 391.33583,152.01938 c 0.9582,-15.72926 25.90241,-25.4999 34.60854,-2.76954 z"
       style="opacity:0.55309735;fill:#051c00;fill-opacity:1;stroke:none;filter:url(#filter3931)" />
    <path
       sodipodi:nodetypes="ccccccccccc"
       inkscape:connector-curvature="0"
       id="path7100"
       d="m 428.92021,147.01248 c -10.52713,-29.18873 -48.0749,-25.59238 -50.95427,2.24961 l 29.57341,156.95476 c 4.89561,14.67767 42.30676,17.89513 46.31839,-10.4966 l -20.20628,-107.41658 -7.46491,2.41077 19.7869,102.94955 c 1.44994,12.94551 -22.18521,25.59026 -31.93921,6.44737 L 385.86708,150.45688 c 0.9582,-15.72926 25.90241,-25.4999 34.60854,-2.76954 z"
       style="fill:#005fff;fill-opacity:1;stroke:none" />
    <path
       style="opacity:0.55309735;fill:#afe8a4;fill-opacity:1;stroke:none"
       d="m 429.3386,146.85474 c -10.52713,-29.18873 -50.83704,-27.38777 -53.71641,0.45422 l 29.57341,156.95476 c 4.89561,14.67767 42.30676,17.89513 46.31839,-10.4966 l -20.20628,-107.41658 -7.46491,2.41077 19.7869,102.94955 c 1.44994,12.94551 -22.18521,25.59026 -31.93921,6.44737 L 383.52333,148.50375 c 0.9582,-15.72926 28.25023,-23.70451 36.95636,-0.97415 z"
       id="path3903"
       inkscape:connector-curvature="0"
       sodipodi:nodetypes="ccccccccccc" />
    <g
       id="g4369"
       transform="matrix(5.7887701,0,0,5.7887701,-679.43186,-3523.5271)"
       inkscape:export-filename="F:\moje\src\wynn\src\app\gfx\wynn-icon.png"
       inkscape:export-xdpi="22.929178"
       inkscape:export-ydpi="22.929178">
      <rect
         rx="6.0137906"
         y="732.20044"
         x="156.88931"
         height="43.395798"
         width="43.395798"
         id="rect4329"
         style="fill:#febf01;fill-opacity:1;stroke:none" />
      <text
         sodipodi:linespacing="125%"
         id="text4321"
         y="763.71893"
         x="166.83302"
         style="font-size:40px;font-style:normal;font-weight:normal;line-height:125%;letter-spacing:0px;word-spacing:0px;fill:#000000;fill-opacity:1;stroke:none;font-family:Sans"
         xml:space="preserve"><tspan
           style="font-size:40px;font-style:normal;font-variant:normal;font-weight:normal;font-stretch:normal;text-align:start;line-height:125%;writing-mode:lr-tb;text-anchor:start;font-family:Cambria;-inkscape-font-specification:Cambria"
           y="763.71893"
           x="166.83302"
           id="tspan4323"
           sodipodi:role="line">Ƿ</tspan></text>
    </g>
  </g>
</svg>
